PathFileType	4	(X/Y/Z)	E:\Qualisys_Data\Carbon_Farble_Plate\Data\Amateur_Runner\S1\T1\S1T1V21_c3d.trc
DataRate	CameraRate	NumFrames	NumMarkers	Units	OrigDataRate	OrigDataStartFrame	OrigNumFrames
200.000000	200.000000	4	39	mm	200.000000	247	283
Frame#	Time	LSHO			RSHO			LICST			RICST			LASIS			LHEEL			RASIS			LTROC			RTROC			SACR			LTH1			LSK4			LTH2			LTH3			RHM5			LSK2			LTH4			RTH1			LTOE			RTH2			RTH3			RTH4			LLEP			RLEP			LSK1			LSK3			RSK1			LHM5			RSK2			LFT1			RSK3			RSK4			LLME			RLME			RTOE			RHEEL			RFT1			RFT2			LFT2			
		X1	Y1	Z1	X2	Y2	Z2	X3	Y3	Z3	X4	Y4	Z4	X5	Y5	Z5	X6	Y6	Z6	X7	Y7	Z7	X8	Y8	Z8	X9	Y9	Z9	X10	Y10	Z10	X11	Y11	Z11	X12	Y12	Z12	X13	Y13	Z13	X14	Y14	Z14	X15	Y15	Z15	X16	Y16	Z16	X17	Y17	Z17	X18	Y18	Z18	X19	Y19	Z19	X20	Y20	Z20	X21	Y21	Z21	X22	Y22	Z22	X23	Y23	Z23	X24	Y24	Z24	X25	Y25	Z25	X26	Y26	Z26	X27	Y27	Z27	X28	Y28	Z28	X29	Y29	Z29	X30	Y30	Z30	X31	Y31	Z31	X32	Y32	Z32	X33	Y33	Z33	X34	Y34	Z34	X35	Y35	Z35	X36	Y36	Z36	X37	Y37	Z37	X38	Y38	Z38	X39	Y39	Z39	

248	1.235	2306.989013671875	1506.350341796875	-602.2963256835938	2228.9599609375	1510.438110351562	-284.8329467773438	2244.3447265625	1032.046875	-569.579345703125	2230.543701171875	1066.935302734375	-272.8662719726562	2286.873779296875	991.13818359375	-542.727294921875	1715.6669921875	217.6061248779297	-442.2593383789062	2266.466552734375	1018.049926757812	-280.6470642089844	2155.21240234375	927.9309692382812	-584.2593994140625	2173.962158203125	928.9575805664062	-242.8074493408203	2120.552978515625	1072.512451171875	-423.1509094238281	2217.05224609375	749.7496948242188	-549.231689453125	1818.927490234375	338.6962890625	-481.501220703125	2142.516845703125	773.9518432617188	-582.8189697265625	2174.424560546875	657.4329833984375	-526.26904296875	2359.323974609375	154.9410095214844	-262.3406677246094	1877.61279296875	413.3397827148438	-524.077392578125	2098.513671875	686.8242797851562	-554.4225463867188	2349.656494140625	876.523193359375	-272.73046875	1894.364379882812	47.28387069702148	-454.5772094726562	2290.84912109375	829.1817016601562	-243.1322784423828	2412.7333984375	796.486328125	-273.8992309570312	2349.146240234375	748.1533813476562	-256.1203002929688	2059.725341796875	537.249755859375	-514.1978149414062	2451.785888671875	619.3605346679688	-290.7793273925781	1943.061645507812	359.7035827636719	-516.3388061523438	1873.789916992188	285.9191284179688	-509.1531677246094	2382.30908203125	442.9902954101562	-275.5848388671875	1829.614990234375	67.8727798461914	-511.7176818847656	2309.82958984375	477.5011291503906	-292.2861633300781	1711.860107421875	193.6040496826172	-412.139404296875	2342.543701171875	351.684326171875	-289.8840942382812	2272.473388671875	385.8956909179688	-314.9557189941406	1775.881713867188	209.3448944091797	-494.6940612792969	2257.041748046875	246.8832550048828	-294.4848937988281	2436.926025390625	160.103759765625	-332.054931640625	2188.57177734375	219.6302795410156	-342.9654846191406	2196.697509765625	187.8993225097656	-372.8601989746094	2188.177734375	195.5863494873047	-315.44677734375	1699.121704101562	192.9649353027344	-464.3207702636719
249	1.24	2328.602294921875	1510.215454101562	-601.4003295898438	2248.56787109375	1513.261840820312	-284.4598999023438	2267.013671875	1035.491577148438	-569.5396728515625	2252.832275390625	1070.0703125	-272.6868286132812	2309.096435546875	994.0147094726562	-542.9549560546875	1730.48291015625	230.9480590820312	-442.0335693359375	2288.1953125	1020.816528320312	-280.660400390625	2176.260009765625	932.4109497070312	-584.0952758789062	2195.773193359375	931.9856567382812	-242.5185241699219	2143.075927734375	1075.783569335938	-422.7835388183594	2235.037109375	752.8068237304688	-549.3474731445312	1832.640991210938	346.29736328125	-481.7927856445312	2160.838623046875	778.677978515625	-583.0919189453125	2191.143310546875	660.9140014648438	-528.7490844726562	2402.474609375	151.8213500976562	-262.4085693359375	1891.776733398438	420.3216857910156	-524.3093872070312	2115.567138671875	692.5631713867188	-555.5703735351562	2371.30908203125	879.5145263671875	-272.543701171875	1899.087646484375	45.33451843261719	-455.6590881347656	2312.670166015625	832.0040283203125	-244.0071868896484	2434.087158203125	798.9895629882812	-274.5281677246094	2370.408935546875	750.6259155273438	-257.7203979492188	2074.888916015625	542.2083129882812	-515.6265869140625	2472.25341796875	621.435302734375	-291.5086059570312	1956.467895507812	366.0855407714844	-517.8257446289062	1887.375854492188	294.57421875	-511.4555053710938	2410.324951171875	440.8497924804688	-275.2416381835938	1834.450317382812	72.65340423583984	-511.1087951660156	2336.54248046875	472.1753540039062	-292.166259765625	1726.377075195312	207.9244537353516	-411.2208251953125	2374.895751953125	347.7151184082031	-290.34130859375	2304.084228515625	378.8224792480469	-314.404052734375	1788.45947265625	218.3916168212891	-495.5611572265625	2295.60595703125	238.2771759033203	-294.7837524414062	2479.49267578125	161.3590698242188	-332.7220153808594	2228.4248046875	207.8859405517578	-342.8854675292969	2238.171630859375	176.3192291259766	-372.7045288085938	2229.444091796875	184.2119445800781	-315.5990295410156	1712.240478515625	206.9773559570312	-463.520751953125
250	1.245	2349.54931640625	1513.682006835938	-599.7318115234375	2269.00244140625	1516.034423828125	-284.454833984375	2289.126220703125	1038.633422851562	-569.4781494140625	2274.86376953125	1072.466552734375	-272.6021423339844	2330.857421875	996.5101318359376	-542.6795654296875	1745.944091796875	244.6258087158203	-442.0699157714844	2309.797119140625	1022.882446289062	-280.5115661621094	2197.156005859375	936.1477661132812	-584.0073852539062	2217.717529296875	934.7901611328124	-242.3216857910156	2165.26123046875	1079.3115234375	-422.2613220214844	2253.439208984375	756.5921630859375	-554.2189331054688	1846.47216796875	354.1427917480469	-482.337646484375	2179.393310546875	783.323486328125	-583.8726196289062	2208.79052734375	664.4898681640625	-531.7244873046875	2445.233154296875	149.7866363525391	-262.8564758300781	1906.39306640625	426.9559326171875	-524.678955078125	2133.330322265625	697.0916137695312	-556.3298950195312	2393.242919921875	882.0889282226562	-271.9635314941406	1903.823608398438	43.6459846496582	-456.639404296875	2333.89599609375	834.7177124023438	-244.742431640625	2455.582763671875	801.5497436523438	-274.5956115722656	2390.8203125	753.2224731445312	-259.2237243652344	2091.32421875	547.1434326171875	-517.329833984375	2492.007568359375	622.9300537109375	-292.0978088378906	1970.611572265625	372.0858459472656	-518.8639526367188	1899.870361328125	299.7389831542969	-510.1748657226562	2438.294921875	438.5629272460938	-275.2577514648438	1840.016845703125	78.4299545288086	-509.775634765625	2363.169921875	466.2327880859375	-291.6723022460938	1741.768798828125	222.7582550048828	-410.6083984375	2407.71044921875	343.6634521484375	-290.4066772460938	2335.253173828125	371.5998229980469	-314.7388916015625	1801.52587890625	227.8504486083984	-496.2352600097656	2334.162841796875	229.8817749023438	-294.5553894042969	2522.311279296875	162.7071228027344	-333.1591186523438	2268.454345703125	195.8470764160156	-343.3963012695312	2279.758056640625	165.4374542236328	-373.4926147460938	2270.549560546875	171.8555145263672	-315.9382629394531	1726.126220703125	221.3523864746094	-462.8533020019531
251	1.25	2371.5751953125	1518.463989257812	-598.6827392578125	2288.503173828125	1518.675659179688	-284.3890991210938	2310.773681640625	1041.091674804688	-569.1425170898438	2296.691650390625	1074.034545898438	-272.5280456542969	2352.5283203125	999.1260986328124	-542.8045043945312	1762.075317382812	258.2570190429688	-442.5709533691406	2331.683349609375	1024.951049804688	-280.69775390625	2217.939453125	940.2252807617188	-584.1806640625	2239.0078125	936.9598999023438	-242.3130493164062	2186.8134765625	1082.25244140625	-422.2920227050781	2273.056884765625	759.3988647460938	-555.2074584960938	1860.781005859375	362.0350952148438	-482.7577819824219	2198.0078125	787.308837890625	-584.174072265625	2226.806396484375	667.5993041992188	-534.71923828125	2487.857666015625	147.8416900634766	-263.0657348632812	1922.198364257812	434.5536193847656	-524.9307861328125	2151.511962890625	701.7293090820312	-557.0669555664062	2414.61962890625	883.8790893554688	-271.1282653808594	1907.780029296875	43.64289093017578	-457.3634948730469	2354.7236328125	836.3670043945312	-245.960693359375	2476.260009765625	802.94189453125	-275.0693969726562	2411.486083984375	754.8711547851562	-261.4219970703125	2108.783935546875	551.3473510742188	-518.9111938476562	2509.9892578125	623.4021606445312	-291.3877258300781	1985.300415039062	377.90185546875	-519.4784545898438	1913.071899414062	307.1808471679688	-511.2669677734375	2466.11865234375	436.2637939453125	-275.1322326660156	1846.370361328125	84.83688354492188	-507.9345092773438	2388.178466796875	460.1464233398438	-291.3614196777344	1757.380004882812	237.1832733154297	-410.6446533203125	2439.8876953125	339.9682922363281	-290.4419250488281	2366.21240234375	364.0001220703125	-314.438720703125	1814.309448242188	237.5089111328125	-496.9403991699219	2372.742919921875	222.1651306152344	-294.7564697265625	2563.440185546875	164.6838226318359	-333.6517333984375	2306.363525390625	182.6311950683594	-345.0196533203125	2321.490478515625	154.4596405029297	-373.1501770019531	2311.61083984375	160.6932220458984	-316.2646179199219	1740.931396484375	236.1790466308594	-462.7304077148438
